<?xml version="1.0" encoding="utf-8"?>
<!-- Generator: Adobe Illustrator 19.0.0, SVG Export Plug-In . SVG Version: 6.00 Build 0)  -->
<svg version="1.1" id="Layer_1" xmlns="http://www.w3.org/2000/svg" xmlns:xlink="http://www.w3.org/1999/xlink" x="0px" y="0px"
	 viewBox="-101.5 377 552.8 39.4" style="enable-background:new -101.5 377 552.8 39.4;" xml:space="preserve">
<style type="text/css">
	.st0{fill:#33CC00;}
	.st1{fill:none;stroke:#CBDDFC;stroke-linecap:round;stroke-linejoin:round;}
	.st2{fill:#669999;}
</style>
<g transform="matrix( 0.245086669921875, 0, 0, 1, -8.05,-122.3) ">
	<g>
		<g id="Layer1_0_FILL">
			<path class="st0" d="M257.7,522.8v-7.6h-488v7.6H257.7z"/>
		</g>
	</g>
	<g transform="matrix( 4.0801849365234375, 0, 0, 1, 32.85,122.3) ">
		<path id="Layer1_0_1_STROKES" class="st1" d="M-230.3,515.2h488v7.6h-488V515.2z"/>
	</g>
</g>
<g transform="matrix( 0.245086669921875, 0, 0, 1, 111.55,-122.3) ">
	<g>
		<g id="Layer1_1_FILL">
			<path class="st0" d="M257.7,522.8v-7.6h-488v7.6H257.7z"/>
		</g>
	</g>
	<g transform="matrix( 4.0801849365234375, 0, 0, 1, -455.15,122.3) ">
		<path id="Layer1_1_1_STROKES" class="st1" d="M-230.3,515.2h488v7.6h-488V515.2z"/>
	</g>
</g>
<g transform="matrix( 0.245086669921875, 0, 0, 1, 231.15,-122.3) ">
	<g>
		<g id="Layer1_2_FILL">
			<path class="st0" d="M257.7,522.8v-7.6h-488v7.6H257.7z"/>
		</g>
	</g>
	<g transform="matrix( 4.0801849365234375, 0, 0, 1, -943.15,122.3) ">
		<path id="Layer1_2_1_STROKES" class="st1" d="M-230.3,515.2h488v7.6h-488V515.2z"/>
	</g>
</g>
<g transform="matrix( 0.245086669921875, 0, 0, 1, 350.75,-122.3) ">
	<g>
		<g id="Layer1_3_FILL">
			<path class="st0" d="M257.7,522.8v-7.6h-488v7.6H257.7z"/>
		</g>
	</g>
	<g transform="matrix( 4.0801849365234375, 0, 0, 1, -1431.1,122.3) ">
		<path id="Layer1_3_1_STROKES" class="st1" d="M-230.2,515.2h488v7.6h-488V515.2z"/>
	</g>
</g>
<g id="elem0" transform="matrix( 0.6876068115234375, 0, 0, 0.6876068115234375, 24.9,-29.4) ">
	<g>
		<g id="Layer0_0_FILL">
			<path class="st2" d="M-174.9,599.9c-5.4,5.5-8.1,12-8.1,19.8c0,7.7,2.7,14.3,8.1,19.7c5.5,5.5,12.1,8.2,19.8,8.2
				s14.3-2.7,19.7-8.2c5.5-5.4,8.2-12,8.2-19.7c0-7.7-2.7-14.3-8.2-19.8c-5.4-5.4-12-8.2-19.7-8.2S-169.5,594.5-174.9,599.9z"/>
		</g>
	</g>
	<g transform="matrix( 1.454315185546875, 0, 0, 1.454315185546875, -36.2,42.75) ">
		<path id="Layer0_0_1_STROKES" class="st1" d="M-127.3,619.7c0,7.7-2.7,14.3-8.2,19.7c-5.4,5.5-12,8.2-19.7,8.2s-14.3-2.7-19.8-8.2
			c-5.4-5.4-8.1-12-8.1-19.7s2.7-14.3,8.1-19.8c5.5-5.4,12-8.1,19.8-8.1s14.3,2.7,19.7,8.1C-130,605.4-127.3,612-127.3,619.7z"/>
	</g>
</g>
<g id="elem1" transform="matrix( 0.6876068115234375, 0, 0, 0.6876068115234375, 144.5,-29.4) ">
	<g>
		<g id="Layer0_1_FILL">
			<path class="st2" d="M-162.2,599.9c-5.4,5.5-8.1,12-8.1,19.8c0,7.7,2.7,14.3,8.1,19.7c5.5,5.5,12.1,8.2,19.8,8.2
				s14.3-2.7,19.7-8.2c5.5-5.4,8.2-12,8.2-19.7c0-7.7-2.7-14.3-8.2-19.8c-5.4-5.4-12-8.2-19.7-8.2S-156.7,594.5-162.2,599.9z"/>
		</g>
	</g>
	<g transform="matrix( 1.454315185546875, 0, 0, 1.454315185546875, -210.15,42.75) ">
		<path id="Layer0_1_1_STROKES" class="st1" d="M-114.5,619.7c0,7.7-2.7,14.3-8.2,19.7c-5.4,5.5-12,8.2-19.7,8.2
			c-7.7,0-14.3-2.7-19.8-8.2c-5.4-5.4-8.1-12-8.1-19.7s2.7-14.3,8.1-19.8c5.5-5.4,12-8.1,19.8-8.1c7.7,0,14.3,2.7,19.7,8.1
			C-117.3,605.4-114.5,612-114.5,619.7z"/>
	</g>
</g>
<g id="elem2" transform="matrix( 0.6876068115234375, 0, 0, 0.6876068115234375, 264.1,-29.4) ">
	<g>
		<g id="Layer0_2_FILL">
			<path class="st2" d="M-149.5,599.9c-5.4,5.5-8.1,12-8.1,19.8c0,7.7,2.7,14.3,8.1,19.7c5.5,5.5,12.1,8.2,19.8,8.2
				s14.3-2.7,19.7-8.2c5.5-5.4,8.2-12,8.2-19.7c0-7.7-2.7-14.3-8.2-19.8c-5.4-5.4-12-8.2-19.7-8.2S-144,594.5-149.5,599.9z"/>
		</g>
	</g>
	<g transform="matrix( 1.454315185546875, 0, 0, 1.454315185546875, -384.1,42.75) ">
		<path id="Layer0_2_1_STROKES" class="st1" d="M-101.8,619.7c0,7.7-2.7,14.3-8.2,19.7c-5.4,5.5-12,8.2-19.7,8.2
			c-7.7,0-14.3-2.7-19.8-8.2c-5.4-5.4-8.1-12-8.1-19.7s2.7-14.3,8.1-19.8c5.5-5.4,12.1-8.1,19.8-8.1c7.7,0,14.3,2.7,19.7,8.1
			C-104.6,605.4-101.8,612-101.8,619.7z"/>
	</g>
</g>
<g id="elem2_1_" transform="matrix( 0.6876068115234375, 0, 0, 0.6876068115234375, 264.1,-29.4) ">
	<g>
		<g id="Layer0_2_FILL_1_">
			<path class="st2" d="M37.2,599.9c-5.4,5.5-8.1,12-8.1,19.8c0,7.7,2.7,14.3,8.1,19.7c5.5,5.5,12,8.2,19.7,8.2s14.3-2.7,19.7-8.2
				c5.5-5.4,8.2-12,8.2-19.7c0-7.7-2.7-14.3-8.2-19.8c-5.4-5.4-12-8.2-19.7-8.2S42.7,594.5,37.2,599.9z"/>
		</g>
	</g>
	<g transform="matrix( 1.454315185546875, 0, 0, 1.454315185546875, -384.1,42.75) ">
		<path id="Layer0_2_1_STROKES_1_" class="st1" d="M84.8,619.7c0,7.7-2.7,14.3-8.2,19.7c-5.4,5.5-12,8.2-19.7,8.2
			c-7.7,0-14.3-2.7-19.8-8.2c-5.4-5.4-8.1-12-8.1-19.7s2.7-14.3,8.1-19.8c5.5-5.4,12.1-8.1,19.8-8.1c7.7,0,14.3,2.7,19.7,8.1
			C82.1,605.4,84.8,612,84.8,619.7z"/>
	</g>
</g>
<g id="elem2_2_" transform="matrix( 0.6876068115234375, 0, 0, 0.6876068115234375, 264.1,-29.4) ">
	<g>
		<g id="Layer0_2_FILL_2_">
			<path class="st2" d="M223.9,599.9c-5.4,5.5-8.1,12-8.1,19.8c0,7.7,2.7,14.3,8.1,19.7c5.5,5.5,12.1,8.2,19.8,8.2
				s14.3-2.7,19.7-8.2c5.5-5.4,8.2-12,8.2-19.7c0-7.7-2.7-14.3-8.2-19.8c-5.4-5.4-12-8.2-19.7-8.2S229.3,594.5,223.9,599.9z"/>
		</g>
	</g>
	<g transform="matrix( 1.454315185546875, 0, 0, 1.454315185546875, -384.1,42.75) ">
		<path id="Layer0_2_1_STROKES_2_" class="st1" d="M271.5,619.7c0,7.7-2.7,14.3-8.2,19.7c-5.4,5.5-12,8.2-19.7,8.2
			c-7.7,0-14.3-2.7-19.8-8.2c-5.4-5.4-8.1-12-8.1-19.7s2.7-14.3,8.1-19.8c5.5-5.4,12.1-8.1,19.8-8.1c7.7,0,14.3,2.7,19.7,8.1
			C268.8,605.4,271.5,612,271.5,619.7z"/>
	</g>
</g>
</svg>
